# xmcd CD database file
#
# Track frame offsets:
#	150
#	10643
#	22877
#	35708
#	49208
#	63218
#	74034
#	86502
#	111962
#	128692
#	148161
#	162024
#
# Disc length: 2563 seconds
#
# Revision: 0
# Processed by: cddbd v1.5.1PL2 Copyright (c) Steve Scherf et al.
# Submitted via: CDex 1.51
#
DISCID=9f0a010c
DTITLE=Chet Baker - The Very Best
DYEAR=2005
DGENRE=Jazz
TTITLE0=My Funny Valentine
TTITLE1=Happy Little Sunbeam
TTITLE2=The Thrill is Gone
TTITLE3=Bockhanal
TTITLE4=This is Always
TTITLE5=The Half Dozens
TTITLE6=Time After Time
TTITLE7=Taboo
TTITLE8=Let's Get Lost
TTITLE9=Love Nest
TTITLE10=But Not For Me
TTITLE11=Picture of Heath
EXTD=YEAR: 2005
EXTT0=
EXTT1=
EXTT2=
EXTT3=
EXTT4=
EXTT5=
EXTT6=
EXTT7=
EXTT8=
EXTT9=
EXTT10=
EXTT11=
PLAYORDER=
